<?xml version="1.0" encoding="UTF-8" ?>
<!DOCTYPE svg PUBLIC "-//W3C//DTD SVG 1.1//EN" "http://www.w3.org/Graphics/SVG/1.1/DTD/svg11.dtd">
<svg width="328pt" height="319pt" viewBox="0 0 328 319" version="1.1" xmlns="http://www.w3.org/2000/svg">
<g id="#ffffffff">
<path fill="#ffffff" opacity="1.00" d=" M 0.00 0.00 L 328.00 0.00 L 328.00 319.00 L 0.00 319.00 L 0.00 0.00 M 112.18 42.18 C 105.11 44.92 97.86 47.37 91.36 51.36 C 83.88 55.99 76.06 60.51 70.35 67.37 C 67.97 70.32 65.12 72.80 62.33 75.34 C 49.22 91.16 40.58 110.77 38.33 131.24 C 38.01 138.47 37.79 145.73 38.06 152.97 C 39.64 168.85 44.87 184.33 53.04 198.01 C 56.58 204.81 62.04 210.28 66.73 216.26 C 69.34 219.71 73.26 221.69 76.42 224.53 C 83.01 231.07 91.31 235.54 99.68 239.37 C 109.07 243.06 118.58 247.08 128.78 247.74 C 133.23 247.73 137.52 249.31 141.98 249.20 C 152.89 249.16 163.66 247.05 174.16 244.25 C 183.84 241.17 193.01 236.69 201.62 231.33 C 205.03 236.20 209.68 239.97 213.75 244.25 C 228.80 259.19 243.64 274.35 258.83 289.16 C 264.66 295.09 274.00 294.96 281.39 292.49 C 287.84 289.26 293.48 282.99 293.82 275.49 C 294.78 269.35 293.33 262.67 288.79 258.22 C 273.21 242.80 257.78 227.22 242.24 211.75 C 238.71 208.26 235.43 204.47 231.33 201.62 C 233.23 198.90 234.52 195.83 236.27 193.02 C 244.50 178.04 248.37 161.00 249.22 144.01 C 248.71 124.08 243.24 104.24 232.83 87.18 C 228.86 80.68 223.71 75.04 218.84 69.22 C 216.20 66.12 212.67 64.03 209.61 61.40 C 201.23 53.80 190.91 48.76 180.57 44.41 C 172.90 42.17 165.29 39.45 157.30 38.58 C 150.91 37.48 144.43 38.06 138.00 38.09 C 129.23 37.93 120.60 39.94 112.18 42.18 Z" />
<path fill="#ffffff" opacity="1.00" d=" M 134.41 75.43 C 146.32 73.99 158.49 75.69 169.63 80.11 C 176.12 82.03 181.17 86.68 186.71 90.33 C 189.98 93.37 193.09 96.60 196.21 99.79 C 202.57 108.23 207.82 117.76 210.21 128.13 C 210.72 133.08 211.37 138.03 211.78 143.00 C 211.09 150.67 210.47 158.48 207.69 165.74 C 205.47 174.38 199.88 181.58 194.49 188.48 C 191.25 192.93 186.54 195.90 182.27 199.25 C 177.55 202.42 172.76 205.78 167.18 207.22 C 148.75 213.85 127.04 213.32 110.09 202.87 C 105.19 199.95 99.97 197.19 96.25 192.75 C 94.04 190.26 91.06 188.49 89.37 185.57 C 87.60 182.70 85.74 179.90 83.86 177.11 C 80.25 171.71 78.35 165.42 76.72 159.19 C 74.79 152.68 75.17 145.81 74.81 139.10 C 76.05 125.26 81.13 111.68 89.68 100.68 C 100.42 86.68 117.13 78.07 134.41 75.43 Z" />
</g>
<g id="#d7d7d7ff">
<path fill="#d7d7d7" opacity="1.00" d=" M 112.18 42.18 C 120.60 39.94 129.23 37.93 138.00 38.09 C 144.43 38.06 150.91 37.48 157.30 38.58 C 165.29 39.45 172.90 42.17 180.57 44.41 C 190.91 48.76 201.23 53.80 209.61 61.40 C 212.67 64.03 216.20 66.12 218.84 69.22 C 223.71 75.04 228.86 80.68 232.83 87.18 C 243.24 104.24 248.71 124.08 249.22 144.01 C 248.37 161.00 244.50 178.04 236.27 193.02 C 234.52 195.83 233.23 198.90 231.33 201.62 C 235.43 204.47 238.71 208.26 242.24 211.75 C 257.78 227.22 273.21 242.80 288.79 258.22 C 293.33 262.67 294.78 269.35 293.82 275.49 C 293.48 282.99 287.84 289.26 281.39 292.49 C 274.00 294.96 264.66 295.09 258.83 289.16 C 243.64 274.35 228.80 259.19 213.75 244.25 C 209.68 239.97 205.03 236.20 201.62 231.33 C 193.01 236.69 183.84 241.17 174.16 244.25 C 163.66 247.05 152.89 249.16 141.98 249.20 C 137.52 249.31 133.23 247.73 128.78 247.74 C 118.58 247.08 109.07 243.06 99.68 239.37 C 91.31 235.54 83.01 231.07 76.42 224.53 C 73.26 221.69 69.34 219.71 66.73 216.26 C 62.04 210.28 56.58 204.81 53.04 198.01 C 44.87 184.33 39.64 168.85 38.06 152.97 C 37.79 145.73 38.01 138.47 38.33 131.24 C 40.58 110.77 49.22 91.16 62.33 75.34 C 65.12 72.80 67.97 70.32 70.35 67.37 C 76.06 60.51 83.88 55.99 91.36 51.36 C 97.86 47.37 105.11 44.92 112.18 42.18 M 134.41 75.43 C 117.13 78.07 100.42 86.68 89.68 100.68 C 81.13 111.68 76.05 125.26 74.81 139.10 C 75.17 145.81 74.79 152.68 76.72 159.19 C 78.35 165.42 80.25 171.71 83.86 177.11 C 85.74 179.90 87.60 182.70 89.37 185.57 C 91.06 188.49 94.04 190.26 96.25 192.75 C 99.97 197.19 105.19 199.95 110.09 202.87 C 127.04 213.32 148.75 213.85 167.18 207.22 C 172.76 205.78 177.55 202.42 182.27 199.25 C 186.54 195.90 191.25 192.93 194.49 188.48 C 199.88 181.58 205.47 174.38 207.69 165.74 C 210.47 158.48 211.09 150.67 211.78 143.00 C 211.37 138.03 210.72 133.08 210.21 128.13 C 207.82 117.76 202.57 108.23 196.21 99.79 C 193.09 96.60 189.98 93.37 186.71 90.33 C 181.17 86.68 176.12 82.03 169.63 80.11 C 158.49 75.69 146.32 73.99 134.41 75.43 Z" />
</g>
</svg>
